# xmcd
#
# Track frame offsets: 
#        150
#        13381
#        25312
#        47289
#        61613
#        77130
#        87744
#        104460
#        114193
#        132397
#
# Disc length: 1983 seconds
#
# Revision: 0
# Processed by: cddbd v1.5.2PL0 Copyright (c) Steve Scherf et al.
# Submitted via: ExactAudioCopy v1.0b1
#
DISCID=7b07bd0a
DTITLE=Jimbo Mathus and The Tri-State Coalition - White Buffalo
DYEAR=2012
DGENRE=Blues
TTITLE0=In The Garden
TTITLE1=(I Wanna Be Your) Satellite
TTITLE2=Tennessee Walker Mare
TTITLE3=White Buffalo
TTITLE4=Hatchie Bottoms
TTITLE5=Fake Hex
TTITLE6=Poor Lost Souls
TTITLE7=Self
TTITLE8=Run Devil Run
TTITLE9=Useless Heart
EXTD=
EXTT0=
EXTT1=
EXTT2=
EXTT3=
EXTT4=
EXTT5=
EXTT6=
EXTT7=
EXTT8=
EXTT9=
PLAYORDER=
